<svg width="126" height="32" viewBox="0 0 126 32" fill="none" xmlns="http://www.w3.org/2000/svg">
<g clip-path="url(#clip0_29_1871)">
<path fill-rule="evenodd" clip-rule="evenodd" d="M96.032 16.9754C96.0747 17.0176 96.0747 17.0598 96.1174 17.0598C96.2028 17.102 96.3309 17.1443 96.5017 17.1443L107.731 17.102L109.61 14.3576C109.695 14.231 109.78 14.1465 109.909 14.0621C110.037 13.9776 110.165 13.8932 110.293 13.8087C110.421 13.7243 110.592 13.6821 110.72 13.6399C110.848 13.5976 111.019 13.5554 111.147 13.5554L116.057 13.3021L121.522 3.67555C121.607 3.54888 121.607 3.46444 121.607 3.33777C121.607 3.29555 121.565 3.25333 121.565 3.21111C121.522 3.16889 121.522 3.16889 121.479 3.12667C121.479 3.12667 121.437 3.12667 121.437 3.08444C121.394 3.08444 121.351 3.04222 121.309 3.04222C121.309 3.04222 121.309 3.04222 121.266 3.04222C121.223 3.04222 121.138 3 121.052 3H121.01C120.967 3 120.882 3 120.839 3C120.796 3 120.796 3 120.754 3C120.668 3 120.583 3 120.497 3.04222L107.005 5.36441C106.877 5.40664 106.706 5.44886 106.535 5.49108C106.365 5.5333 106.194 5.61774 106.066 5.70219C105.938 5.78663 105.767 5.87107 105.639 5.95552C105.639 5.95552 105.596 5.95552 105.596 5.99774C105.468 6.08218 105.34 6.20885 105.255 6.29329L96.459 15.9621C96.3736 16.0465 96.2882 16.1309 96.2455 16.2154C96.2455 16.2576 96.2028 16.2576 96.2028 16.2998C96.1601 16.3843 96.1174 16.4265 96.1174 16.4687C96.1174 16.5109 96.1174 16.5109 96.0747 16.5532C96.032 16.6376 96.032 16.6798 96.032 16.7643C95.9893 16.8909 95.9893 16.9332 96.032 16.9754Z" fill="white" fill-opacity="0.8"/>
<path d="M125.959 13.333C126 13.4165 126 13.4582 126 13.5C126 13.5418 125.985 13.5703 125.985 13.5703L121.324 26.6308C121.201 27.0072 120.996 27.384 120.709 27.6767C120.422 27.9694 120.093 28.2616 119.724 28.4707C119.355 28.6797 118.944 28.847 118.534 28.9306C118.124 29.0142 117.714 29.0144 117.304 28.9726L103.192 26.8398C103.11 26.8398 103.028 26.8396 102.946 26.7978C102.864 26.7977 102.823 26.7566 102.741 26.7148C102.7 26.673 102.618 26.6306 102.577 26.5888L102.454 26.4638C100.321 23.6202 98.1468 20.8182 96.0137 17.9746C96.0137 17.9746 96.2197 18.2675 96.7119 18.2675L102.864 18.3505L111.684 18.4765C111.971 18.4765 112.259 18.4344 112.587 18.3925L113.079 18.2675C113.448 18.1421 113.817 18.0168 114.146 17.8496C114.269 17.8078 114.351 17.7652 114.474 17.6816C114.72 17.5562 114.925 17.4309 115.13 17.2636C115.212 17.2218 115.335 17.1383 115.417 17.0546C115.54 16.971 115.622 16.8873 115.704 16.8037L115.95 16.5527C116.196 16.3018 116.401 16.0505 116.524 15.7578L122.801 3.7568C122.842 3.67316 122.883 3.63065 122.883 3.58883C122.924 3.54711 122.924 3.50555 122.924 3.46383V3.21285L125.959 13.333Z" fill="white"/>
<path fill-rule="evenodd" clip-rule="evenodd" d="M3.58322 14.4016C3.23181 15.1822 3.03727 16.0949 3.00589 17.1273V17.6624C3.00589 17.8449 3.01217 18.0275 3.02472 18.2163C3.0561 18.6003 3.1314 18.978 3.23808 19.3494C3.34476 19.7208 3.52675 20.0482 3.78404 20.3315C4.0476 20.6273 4.35509 20.728 4.70024 20.8036C5.04538 20.8728 5.40308 20.9106 5.76077 20.9106H5.91138L9.72052 20.8917V23.0446H5.51603C4.84457 23.0446 4.19821 22.9816 3.57695 22.862C2.95569 22.7424 2.37208 22.4592 1.81985 22.0185C1.16094 21.4771 0.696564 20.8225 0.432999 20.0419C0.169434 19.2676 0.0251014 18.4681 0.00627535 17.6498C0 17.4798 0 17.3099 0 17.1462C0.00627535 16.9825 0.0125507 16.8126 0.0251014 16.6489C0.144333 14.773 0.652636 13.4007 1.55001 12.5131C2.44739 11.6318 3.79031 11.1912 5.57879 11.1912L9.71424 11.1723V13.4133H5.91138C4.71279 13.4322 3.93464 13.621 3.58322 14.4016ZM22.723 23.0131V10.0895H25.5532V23.0131H22.723ZM46.6196 20.7532H44.1847C43.4756 20.7532 43.0677 20.6462 42.7916 20.407C42.5155 20.1741 42.3774 19.7083 42.3774 19.0158V12.6957H39.4845V19.255C39.4845 20.7155 39.8924 21.7101 40.7145 22.2325C41.5303 22.755 42.3461 23.0131 44.0467 23.0131C44.0341 23.0131 46.6196 23.2964 46.6196 20.7532ZM46.6007 12.6957L46.6447 23.0131H49.4937V12.6957H46.6007ZM57.25 12.6957C58.7184 12.7082 59.5719 13.0482 59.8041 13.7154C60.0363 14.3827 60.1492 15.2766 60.1367 16.3971V17.0455L57.3755 17.0266V16.5985C57.3755 15.648 57.3755 15.1255 57.1496 14.8926C56.9237 14.6597 54.8654 14.6975 53.9241 14.6975H53.6354V23.0194H50.9245V12.6957H57.25ZM71.7335 16.1138C71.5578 15.4529 71.244 14.8485 70.7922 14.3009C70.2463 13.6336 69.6062 13.2056 68.8657 13.0104C68.1252 12.8153 67.3408 12.7082 66.5124 12.6957H64.0525V10.0895H61.2035V23.0131H63.9646C63.9772 23.0131 63.996 14.9304 63.9835 14.9304H65.0754V14.9493C65.6213 14.9493 66.8639 15.0311 67.3094 15.1381C67.7612 15.2451 68.2382 15.5284 68.5268 16.0509C68.6712 16.2838 68.7716 16.5419 68.8406 16.8126C68.9033 17.0833 68.9473 17.3665 68.9598 17.6561C68.9598 17.8135 68.9535 17.9708 68.9473 18.1345C68.941 18.2982 68.9284 18.4556 68.9159 18.6129C68.8092 19.7901 68.3448 20.3692 67.5981 20.6273C66.7446 20.9232 65.6402 20.898 64.7679 20.8602C64.5671 20.8539 64.1592 20.8414 63.9897 20.8414C63.9897 23.4034 66.6066 23.032 66.9643 23.032C68.577 23.032 69.5623 22.5788 70.4659 21.7101C71.3758 20.8414 71.859 19.6516 71.9281 18.1345C71.9783 17.4484 71.9092 16.7748 71.7335 16.1138ZM82.9727 21.8737C82.4267 22.371 81.7678 22.7361 80.9959 22.9691C80.2241 23.202 79.3644 23.2271 78.5486 23.2271C77.7265 23.2271 76.8605 23.2334 76.0949 23.0005C75.3293 22.7676 74.6767 22.4088 74.1307 21.9241C73.5722 21.4268 73.2271 20.7092 72.9447 20.0167C72.6623 19.3243 72.5242 18.6129 72.5242 17.8827C72.5242 17.1525 72.6623 16.4412 72.9447 15.7487C73.2271 15.0563 73.5534 14.3827 74.1119 13.8854C74.6578 13.4007 75.3168 13.0419 76.0886 12.7964C76.8605 12.5572 77.7516 12.5131 78.5674 12.5131C79.3706 12.5131 80.2429 12.5257 81.0085 12.7649C81.7804 13.0041 82.4393 13.3692 82.9852 13.8539C83.5437 14.3512 83.8889 15.0563 84.1713 15.7487C84.4537 16.4412 84.5917 17.1525 84.5917 17.8827C84.5917 18.6129 84.4537 19.3243 84.1713 20.0167C83.8889 20.7092 83.5312 21.3953 82.9727 21.8926V21.8737ZM77.488 20.7469C77.5947 20.7847 77.6951 20.8162 77.7955 20.8414C77.8959 20.8665 77.9901 20.8854 78.0779 20.898C78.8058 20.9861 79.4836 20.8728 80.1237 20.5581C80.7575 20.2433 81.1842 19.7775 81.3976 19.1732C81.4729 18.9592 81.5293 18.7262 81.567 18.4807C81.6047 18.2352 81.6235 17.9834 81.6235 17.7316C81.5921 17.1777 81.4352 16.6489 81.1465 16.1453C80.8579 15.648 80.3998 15.2829 79.7597 15.0563C79.6216 15.0059 79.4773 14.9681 79.3267 14.943C79.1761 14.9178 79.0318 14.8989 78.8937 14.8863C78.1971 14.8359 77.5445 14.9681 76.9421 15.2829C76.3334 15.5976 75.9255 16.0446 75.7184 16.6111C75.6431 16.8252 75.5866 17.0518 75.5489 17.2847C75.5113 17.5176 75.4987 17.7505 75.5176 17.9771C75.5301 18.5752 75.6933 19.1354 76.007 19.6579C76.3145 20.1804 76.8103 20.5518 77.4943 20.7658V20.7469H77.488ZM36.9744 21.8737C36.4284 22.371 35.7695 22.7361 34.9976 22.9691C34.2258 23.202 33.366 23.2271 32.5502 23.2271C31.7282 23.2271 30.8622 23.2334 30.0966 23.0005C29.331 22.7676 28.6783 22.4088 28.1324 21.9241C27.5739 21.4268 27.2287 20.7092 26.9464 20.0167C26.664 19.3243 26.5259 18.6129 26.5259 17.8827C26.5259 17.1525 26.664 16.4412 26.9464 15.7487C27.2287 15.0563 27.5551 14.3827 28.1136 13.8854C28.6595 13.4007 29.3184 13.0419 30.0903 12.7964C30.8622 12.5572 31.7533 12.5131 32.5691 12.5131C33.3723 12.5131 34.2446 12.5257 35.0102 12.7649C35.782 13.0041 36.441 13.3692 36.9869 13.8539C37.5454 14.3512 37.8906 15.0563 38.173 15.7487C38.4553 16.4412 38.5934 17.1525 38.5934 17.8827C38.5934 18.6129 38.4553 19.3243 38.173 20.0167C37.8906 20.7092 37.5329 21.3953 36.9744 21.8926V21.8737ZM31.4897 20.7469C31.5964 20.7847 31.6968 20.8162 31.7972 20.8414C31.8976 20.8665 31.9917 20.8854 32.0796 20.898C32.8075 20.9861 33.4853 20.8728 34.1254 20.5581C34.7592 20.2433 35.1859 19.7775 35.3993 19.1732C35.4746 18.9592 35.531 18.7262 35.5687 18.4807C35.6063 18.2352 35.6252 17.9834 35.6252 17.7316C35.5938 17.1777 35.4369 16.6489 35.1482 16.1453C34.8596 15.648 34.4015 15.2829 33.7614 15.0563C33.6233 15.0059 33.479 14.9681 33.3284 14.943C33.1778 14.9178 33.0334 14.8989 32.8954 14.8863C32.1988 14.8359 31.5462 14.9681 30.9438 15.2829C30.335 15.5976 29.9271 16.0446 29.7201 16.6111C29.6448 16.8252 29.5883 17.0518 29.5506 17.2847C29.513 17.5176 29.5004 17.7505 29.5192 17.9771C29.5318 18.5752 29.695 19.1354 30.0087 19.6579C30.3162 20.1804 30.812 20.5518 31.496 20.7658V20.7469H31.4897ZM20.2192 21.8737C19.6732 22.371 19.0143 22.7361 18.2424 22.9691C17.4706 23.202 16.6109 23.2271 15.7951 23.2271C14.973 23.2271 14.107 23.2334 13.3414 23.0005C12.5758 22.7676 11.9232 22.4088 11.3772 21.9241C10.8187 21.4268 10.4736 20.7092 10.1912 20.0167C9.90878 19.3243 9.77072 18.6129 9.77072 17.8827C9.77072 17.1525 9.90878 16.4412 10.1912 15.7487C10.4736 15.0563 10.7999 14.3827 11.3584 13.8854C11.9043 13.4007 12.5633 13.0419 13.3351 12.7964C14.107 12.5572 14.9981 12.5131 15.8139 12.5131C16.6171 12.5131 17.4894 12.5257 18.255 12.7649C19.0269 13.0041 19.6858 13.3692 20.2317 13.8539C20.7902 14.3512 21.1354 15.0563 21.4178 15.7487C21.7002 16.4412 21.8382 17.1525 21.8382 17.8827C21.8382 18.6129 21.7002 19.3243 21.4178 20.0167C21.1354 20.7092 20.7777 21.3953 20.2192 21.8926V21.8737ZM14.7345 20.7469C14.8412 20.7847 14.9416 20.8162 15.042 20.8414C15.1424 20.8665 15.2366 20.8854 15.3244 20.898C16.0523 20.9861 16.7301 20.8728 17.3702 20.5581C18.004 20.2433 18.4307 19.7775 18.6441 19.1732C18.7194 18.9592 18.7758 18.7262 18.8135 18.4807C18.8512 18.2352 18.87 17.9834 18.87 17.7316C18.8386 17.1777 18.6817 16.6489 18.3931 16.1453C18.1044 15.648 17.6463 15.2829 17.0062 15.0563C16.8681 15.0059 16.7238 14.9681 16.5732 14.943C16.4226 14.9178 16.2783 14.8989 16.1402 14.8863C15.4436 14.8359 14.791 14.9681 14.1886 15.2829C13.5799 15.5976 13.172 16.0446 12.9649 16.6111C12.8896 16.8252 12.8331 17.0518 12.7954 17.2847C12.7578 17.5176 12.7452 17.7505 12.7641 17.9771C12.7766 18.5752 12.9398 19.1354 13.2535 19.6579C13.561 20.1804 14.0568 20.5518 14.7408 20.7658V20.7469H14.7345Z" fill="white"/>
<path fill-rule="evenodd" clip-rule="evenodd" d="M86.6751 12.6957L89.0033 15.8117L91.3879 12.6957H94.6825L90.6725 17.9205L94.626 23.0131H91.2938L89.0096 20.0167L86.7065 23.0131H83.3931L87.3843 17.8638L83.3429 12.6957H86.6751Z" fill="white"/>
</g>
<defs>
<clipPath id="clip0_29_1871">
<rect width="126" height="32" fill="white"/>
</clipPath>
</defs>
</svg>
