<svg width="30" height="26" viewBox="0 0 30 26" fill="none" xmlns="http://www.w3.org/2000/svg">
<path fill-rule="evenodd" clip-rule="evenodd" d="M0.0320227 13.9754C0.0747197 14.0176 0.0747197 14.0598 0.117417 14.0598C0.20281 14.102 0.330901 14.1443 0.501689 14.1443L11.731 14.102L13.6096 11.3576C13.695 11.231 13.7804 11.1465 13.9085 11.0621C14.0366 10.9776 14.1647 10.8932 14.2928 10.8087C14.4209 10.7243 14.5917 10.6821 14.7198 10.6399C14.8479 10.5976 15.0186 10.5554 15.1467 10.5554L20.0569 10.3021L25.5221 0.675547C25.6075 0.548882 25.6075 0.464438 25.6075 0.337773C25.6075 0.295552 25.5648 0.25333 25.5648 0.211108C25.5221 0.168887 25.5221 0.168887 25.4794 0.126665C25.4794 0.126665 25.4367 0.126665 25.4367 0.0844434C25.394 0.0844434 25.3513 0.0422217 25.3086 0.0422217C25.3086 0.0422217 25.3086 0.0422217 25.2659 0.0422217C25.2232 0.0422217 25.1378 0 25.0524 0H25.0097C24.967 0 24.8816 0 24.8389 0C24.7962 0 24.7962 0 24.7535 0C24.6681 0 24.5828 0 24.4974 0.0422217L11.0051 2.36441C10.877 2.40664 10.7063 2.44886 10.5355 2.49108C10.3647 2.5333 10.1939 2.61774 10.0658 2.70219C9.93771 2.78663 9.76692 2.87107 9.63883 2.95552C9.63883 2.95552 9.59613 2.95552 9.59613 2.99774C9.46804 3.08218 9.33995 3.20885 9.25456 3.29329L0.458992 12.9621C0.373598 13.0465 0.288204 13.1309 0.245507 13.2154C0.245507 13.2576 0.20281 13.2576 0.20281 13.2998C0.160113 13.3843 0.117417 13.4265 0.117417 13.4687C0.117417 13.5109 0.117417 13.5109 0.0747197 13.5532C0.0320227 13.6376 0.0320227 13.6798 0.0320227 13.7643C-0.0106742 13.8909 -0.0106742 13.9332 0.0320227 13.9754Z" fill="#0A0A0A" fill-opacity="0.8"/>
<path d="M29.959 10.333C30 10.4165 30 10.4582 30 10.5C30 10.5418 29.9854 10.5703 29.9854 10.5703L25.3242 23.6308C25.2012 24.0072 24.9961 24.384 24.709 24.6767C24.4219 24.9694 24.0928 25.2616 23.7236 25.4707C23.3545 25.6797 22.9443 25.847 22.5342 25.9306C22.1241 26.0142 21.7138 26.0144 21.3037 25.9726L7.1924 23.8398C7.11048 23.8398 7.02822 23.8396 6.9463 23.7978C6.86449 23.7977 6.82316 23.7566 6.74123 23.7148C6.70021 23.673 6.61818 23.6306 6.57716 23.5888L6.45412 23.4638C4.32104 20.6202 2.14677 17.8182 0.0136871 14.9746C0.0136871 14.9746 0.21968 15.2675 0.711929 15.2675L6.86427 15.3505L15.6836 15.4765C15.9708 15.4765 16.2588 15.4344 16.5869 15.3925L17.0791 15.2675C17.4482 15.1421 17.8174 15.0168 18.1455 14.8496C18.2686 14.8078 18.3506 14.7652 18.4736 14.6816C18.7197 14.5562 18.9249 14.4309 19.1299 14.2636C19.2119 14.2218 19.335 14.1383 19.417 14.0546C19.5401 13.971 19.6221 13.8873 19.7041 13.8037L19.9502 13.5527C20.1963 13.3018 20.4014 13.0505 20.5244 12.7578L26.8008 0.756798C26.8418 0.673162 26.8828 0.630647 26.8828 0.588829C26.9236 0.547107 26.9238 0.505551 26.9238 0.463829V0.212852L29.959 10.333Z" fill="#0A0A0A"/>
</svg>
